<svg width="28" height="28" viewBox="0 0 28 28" fill="none" xmlns="http://www.w3.org/2000/svg">
<path fill-rule="evenodd" clip-rule="evenodd" d="M0.666679 5.99984C0.666679 4.58535 1.22858 3.2288 2.22878 2.2286C3.22897 1.22841 4.58552 0.666504 6.00001 0.666504H22C23.4145 0.666504 24.7711 1.22841 25.7712 2.2286C26.7714 3.2288 27.3333 4.58535 27.3333 5.99984V21.9998C27.3333 23.4143 26.7714 24.7709 25.7712 25.7711C24.7711 26.7713 23.4145 27.3332 22 27.3332H6.00001C4.58552 27.3332 3.22897 26.7713 2.22878 25.7711C1.22858 24.7709 0.666679 23.4143 0.666679 21.9998V5.99984ZM6.00001 3.33317C5.29277 3.33317 4.61449 3.61412 4.11439 4.11422C3.6143 4.61432 3.33335 5.29259 3.33335 5.99984V21.9998C3.33335 22.7071 3.6143 23.3854 4.11439 23.8855C4.61449 24.3856 5.29277 24.6665 6.00001 24.6665H14V15.3332H12.6667C12.3131 15.3332 11.9739 15.1927 11.7239 14.9426C11.4738 14.6926 11.3333 14.3535 11.3333 13.9998C11.3333 13.6462 11.4738 13.3071 11.7239 13.057C11.9739 12.807 12.3131 12.6665 12.6667 12.6665H14V10.6665C14 9.42883 14.4917 8.24184 15.3668 7.36667C16.242 6.4915 17.429 5.99984 18.6667 5.99984H19.4667C19.8203 5.99984 20.1594 6.14032 20.4095 6.39036C20.6595 6.64041 20.8 6.97955 20.8 7.33317C20.8 7.68679 20.6595 8.02593 20.4095 8.27598C20.1594 8.52603 19.8203 8.66651 19.4667 8.66651H18.6667C18.404 8.66651 18.144 8.71824 17.9013 8.81875C17.6587 8.91926 17.4382 9.06658 17.2525 9.25229C17.0667 9.43801 16.9194 9.65849 16.8189 9.90114C16.7184 10.1438 16.6667 10.4039 16.6667 10.6665V12.6665H19.4667C19.8203 12.6665 20.1594 12.807 20.4095 13.057C20.6595 13.3071 20.8 13.6462 20.8 13.9998C20.8 14.3535 20.6595 14.6926 20.4095 14.9426C20.1594 15.1927 19.8203 15.3332 19.4667 15.3332H16.6667V24.6665H22C22.7073 24.6665 23.3855 24.3856 23.8856 23.8855C24.3857 23.3854 24.6667 22.7071 24.6667 21.9998V5.99984C24.6667 5.29259 24.3857 4.61432 23.8856 4.11422C23.3855 3.61412 22.7073 3.33317 22 3.33317H6.00001Z" fill="white"/>
</svg>
