<svg width="28" height="28" viewBox="0 0 28 28" fill="none" xmlns="http://www.w3.org/2000/svg">
<path fill-rule="evenodd" clip-rule="evenodd" d="M0.666677 5.99984C0.666677 4.58535 1.22858 3.2288 2.22877 2.2286C3.22897 1.22841 4.58552 0.666504 6.00001 0.666504H22C23.4145 0.666504 24.7711 1.22841 25.7712 2.2286C26.7714 3.2288 27.3333 4.58535 27.3333 5.99984V21.9998C27.3333 23.4143 26.7714 24.7709 25.7712 25.7711C24.7711 26.7713 23.4145 27.3332 22 27.3332H6.00001C4.58552 27.3332 3.22897 26.7713 2.22877 25.7711C1.22858 24.7709 0.666677 23.4143 0.666677 21.9998V5.99984ZM6.00001 3.33317C5.29277 3.33317 4.61449 3.61412 4.11439 4.11422C3.6143 4.61432 3.33334 5.29259 3.33334 5.99984V21.9998C3.33334 22.7071 3.6143 23.3854 4.11439 23.8855C4.61449 24.3856 5.29277 24.6665 6.00001 24.6665H22C22.7073 24.6665 23.3855 24.3856 23.8856 23.8855C24.3857 23.3854 24.6667 22.7071 24.6667 21.9998V5.99984C24.6667 5.29259 24.3857 4.61432 23.8856 4.11422C23.3855 3.61412 22.7073 3.33317 22 3.33317H6.00001ZM14 9.99984C12.9391 9.99984 11.9217 10.4213 11.1716 11.1714C10.4214 11.9216 10 12.939 10 13.9998C10 15.0607 10.4214 16.0781 11.1716 16.8283C11.9217 17.5784 12.9391 17.9998 14 17.9998C15.0609 17.9998 16.0783 17.5784 16.8284 16.8283C17.5786 16.0781 18 15.0607 18 13.9998C18 12.939 17.5786 11.9216 16.8284 11.1714C16.0783 10.4213 15.0609 9.99984 14 9.99984ZM7.33334 13.9998C7.33334 12.2317 8.03572 10.536 9.28597 9.28579C10.5362 8.03555 12.2319 7.33317 14 7.33317C15.7681 7.33317 17.4638 8.03555 18.7141 9.28579C19.9643 10.536 20.6667 12.2317 20.6667 13.9998C20.6667 15.768 19.9643 17.4636 18.7141 18.7139C17.4638 19.9641 15.7681 20.6665 14 20.6665C12.2319 20.6665 10.5362 19.9641 9.28597 18.7139C8.03572 17.4636 7.33334 15.768 7.33334 13.9998ZM21.3333 8.66651C21.8638 8.66651 22.3725 8.45579 22.7476 8.08072C23.1226 7.70565 23.3333 7.19694 23.3333 6.66651C23.3333 6.13607 23.1226 5.62736 22.7476 5.25229C22.3725 4.87722 21.8638 4.6665 21.3333 4.6665C20.8029 4.6665 20.2942 4.87722 19.9191 5.25229C19.5441 5.62736 19.3333 6.13607 19.3333 6.66651C19.3333 7.19694 19.5441 7.70565 19.9191 8.08072C20.2942 8.45579 20.8029 8.66651 21.3333 8.66651Z" fill="white"/>
</svg>
