<svg width="32" height="32" viewBox="0 0 32 32" fill="none" xmlns="http://www.w3.org/2000/svg">
<path d="M20.84 19.2L17.48 22.5333C14.1467 20.6267 11.3867 17.8667 9.48 14.5333L12.8133 11.1733C13.12 10.8533 13.2533 10.4133 13.1733 9.97333L12.1733 5.06667C12.0533 4.45333 11.5067 4 10.8667 4H5.33333C4.58667 4 3.96 4.62667 4 5.37333C4.22667 9.22667 5.4 12.84 7.24 16C9.34667 19.64 12.3733 22.6533 16 24.76C19.16 26.5867 22.7733 27.7733 26.6267 28C27.3733 28.04 28 27.4133 28 26.6667V21.1333C28 20.4933 27.5467 19.9467 26.9333 19.8267L22.04 18.8533C21.6 18.76 21.1467 18.8933 20.84 19.2Z" fill="white"/>
</svg>
