<svg width="260" height="40" viewBox="0 0 260 40" fill="none" xmlns="http://www.w3.org/2000/svg">
<path d="M75.4102 28H71.8945V20.6875H65.0391V28H61.5234V10.9375H65.0391V17.8516H71.8945V10.9375H75.4102V28ZM88.3359 24.4844H82.1719L81 28H77.2617L83.6133 10.9375H86.8711L93.2578 28H89.5195L88.3359 24.4844ZM83.1211 21.6367H87.3867L85.2422 15.25L83.1211 21.6367ZM98.3672 21.9883V28H94.8516V10.9375H101.508C102.789 10.9375 103.914 11.1719 104.883 11.6406C105.859 12.1094 106.609 12.7773 107.133 13.6445C107.656 14.5039 107.918 15.4844 107.918 16.5859C107.918 18.2578 107.344 19.5781 106.195 20.5469C105.055 21.5078 103.473 21.9883 101.449 21.9883H98.3672ZM98.3672 19.1406H101.508C102.438 19.1406 103.145 18.9219 103.629 18.4844C104.121 18.0469 104.367 17.4219 104.367 16.6094C104.367 15.7734 104.121 15.0977 103.629 14.582C103.137 14.0664 102.457 13.8008 101.59 13.7852H98.3672V19.1406ZM113.859 21.9883V28H110.344V10.9375H117C118.281 10.9375 119.406 11.1719 120.375 11.6406C121.352 12.1094 122.102 12.7773 122.625 13.6445C123.148 14.5039 123.41 15.4844 123.41 16.5859C123.41 18.2578 122.836 19.5781 121.688 20.5469C120.547 21.5078 118.965 21.9883 116.941 21.9883H113.859ZM113.859 19.1406H117C117.93 19.1406 118.637 18.9219 119.121 18.4844C119.613 18.0469 119.859 17.4219 119.859 16.6094C119.859 15.7734 119.613 15.0977 119.121 14.582C118.629 14.0664 117.949 13.8008 117.082 13.7852H113.859V19.1406ZM131.719 18.625L135.27 10.9375H139.113L133.512 21.8125V28H129.938V21.8125L124.336 10.9375H128.191L131.719 18.625ZM150.164 21.9883V28H146.648V10.9375H153.305C154.586 10.9375 155.711 11.1719 156.68 11.6406C157.656 12.1094 158.406 12.7773 158.93 13.6445C159.453 14.5039 159.715 15.4844 159.715 16.5859C159.715 18.2578 159.141 19.5781 157.992 20.5469C156.852 21.5078 155.27 21.9883 153.246 21.9883H150.164ZM150.164 19.1406H153.305C154.234 19.1406 154.941 18.9219 155.426 18.4844C155.918 18.0469 156.164 17.4219 156.164 16.6094C156.164 15.7734 155.918 15.0977 155.426 14.582C154.934 14.0664 154.254 13.8008 153.387 13.7852H150.164V19.1406ZM165.879 28H162.363V10.9375H165.879V28ZM172.875 25.1758H181.477V28H168.48V25.9375L176.918 13.7852H168.492V10.9375H181.289V12.9531L172.875 25.1758ZM187.43 25.1758H196.031V28H183.035V25.9375L191.473 13.7852H183.047V10.9375H195.844V12.9531L187.43 25.1758ZM208.055 24.4844H201.891L200.719 28H196.98L203.332 10.9375H206.59L212.977 28H209.238L208.055 24.4844ZM202.84 21.6367H207.105L204.961 15.25L202.84 21.6367Z" fill="white"/>
<path fill-rule="evenodd" clip-rule="evenodd" d="M20 40C31.0457 40 40 31.0457 40 20C40 8.9543 31.0457 0 20 0C8.9543 0 0 8.9543 0 20C0 31.0457 8.9543 40 20 40ZM10 20C10 18.8954 9.10457 18 8 18C6.89543 18 6 18.8954 6 20C6 27.732 12.268 34 20 34C27.732 34 34 27.732 34 20C34 18.8954 33.1046 18 32 18C30.8954 18 30 18.8954 30 20C30 25.5228 25.5228 30 20 30C14.4772 30 10 25.5228 10 20ZM18 14C18 16.2091 16.2091 18 14 18C11.7909 18 10 16.2091 10 14C10 11.7909 11.7909 10 14 10C16.2091 10 18 11.7909 18 14ZM26 14C28.2091 14 30 12.2091 30 10C30 7.79086 28.2091 6 26 6C23.7909 6 22 7.79086 22 10C22 12.2091 23.7909 14 26 14Z" fill="white"/>
</svg>
